<svg width="195" height="56" viewBox="0 0 195 56" fill="none" xmlns="http://www.w3.org/2000/svg">
<path d="M-8.77008e-05 55.0195V0.419529H4.19991V16.3795H30.5899V0.419529H34.7899V55.0195H30.5899V20.2295H4.19991V55.0195H-8.77008e-05ZM40.6081 55.0195V0.419529H53.0681V55.0195H48.8681V39.4795C48.2381 39.6895 47.5381 39.8295 46.8381 39.8295C46.1381 39.8295 45.4381 39.6895 44.8081 39.4795V55.0195H40.6081ZM44.8081 34.0195C44.8081 35.1395 45.6481 36.0495 46.8381 36.0495C47.9581 36.0495 48.8681 35.1395 48.8681 34.0195C48.8681 32.8995 47.9581 31.9895 46.8381 31.9895C45.6481 31.9895 44.8081 32.8995 44.8081 34.0195ZM44.8081 28.5595C45.4381 28.3495 46.1381 28.2095 46.8381 28.2095C47.5381 28.2095 48.2381 28.3495 48.8681 28.5595V4.19953H44.8081V28.5595ZM85.0412 14.7695C85.0412 8.67953 80.1412 3.77953 74.0512 3.77953C68.0312 3.77953 63.1312 8.67953 63.1312 14.7695V55.0195H58.9312V0.419529H63.1312V5.31953C65.7212 2.02953 69.7112 -0.000469685 74.3312 -0.000469685C82.7312 -0.000469685 89.2412 6.50953 89.2412 14.4895V55.0195H85.0412V14.7695ZM95.096 55.0195V0.419529H99.296L125.616 46.5495V0.419529H129.816V55.0195H125.616L99.296 8.88953V55.0195H95.096ZM133.674 55.0195L139.344 0.419529H143.544L149.214 55.0195H144.944L144.244 47.6695C143.474 48.1595 142.564 48.4395 141.444 48.4395C140.394 48.4395 139.414 48.1595 138.644 47.5995L137.944 55.0195H133.674ZM139.134 42.3495C139.134 43.6095 140.184 44.6595 141.444 44.6595C142.774 44.6595 143.754 43.6095 143.754 42.3495C143.754 41.0195 142.774 40.0395 141.444 40.0395C140.184 40.0395 139.134 41.0195 139.134 42.3495ZM139.624 36.5395C140.184 36.3995 140.814 36.2595 141.444 36.2595C142.074 36.2595 142.704 36.3995 143.264 36.5395L141.444 16.3795L139.624 36.5395ZM190.66 55.0195V29.6095H157.27V55.0195H153.07V0.419529H157.27V25.7595H190.66V0.419529H194.86V55.0195H190.66Z" fill="white"/>
</svg>